<svg xmlns="http://www.w3.org/2000/svg" width="1440" height="630" viewBox="0 0 1440 630" role="img" aria-labelledby="title description">
<title id="title">Tatawwu — Registrations routes</title>
<desc id="description">A simplified proposed backend route table with HTTP method, controller, success response, URI, and use case.</desc>
<rect x="0" y="0" width="1440" height="630" fill="#15191e" stroke="none"/>
<text x="48" y="62" font-family="DejaVu Sans, sans-serif" font-size="36" font-weight="700" fill="#edf2f7">Registrations</text>
<text x="48" y="100" font-family="DejaVu Sans, sans-serif" font-size="20" font-weight="400" fill="#b7c2cf">Express &amp; Postman · Simplified proposed backend routes</text>
<rect x="48" y="148" width="200" height="58" fill="#202831" stroke="#4b5563"/>
<text x="66" y="185" font-family="DejaVu Sans, sans-serif" font-size="21" font-weight="700" fill="#edf2f7">HTTP Method</text>
<rect x="248" y="148" width="190" height="58" fill="#202831" stroke="#4b5563"/>
<text x="266" y="185" font-family="DejaVu Sans, sans-serif" font-size="21" font-weight="700" fill="#edf2f7">Controller</text>
<rect x="438" y="148" width="160" height="58" fill="#202831" stroke="#4b5563"/>
<text x="456" y="185" font-family="DejaVu Sans, sans-serif" font-size="21" font-weight="700" fill="#edf2f7">Response</text>
<rect x="598" y="148" width="360" height="58" fill="#202831" stroke="#4b5563"/>
<text x="616" y="185" font-family="DejaVu Sans, sans-serif" font-size="21" font-weight="700" fill="#edf2f7">URI</text>
<rect x="958" y="148" width="434" height="58" fill="#202831" stroke="#4b5563"/>
<text x="976" y="185" font-family="DejaVu Sans, sans-serif" font-size="21" font-weight="700" fill="#edf2f7">Use Case</text>
<rect x="48" y="206" width="200" height="64" fill="#15191e" stroke="#4b5563"/>
<text x="66" y="246" font-family="DejaVu Sans, sans-serif" font-size="22" font-weight="400" fill="#edf2f7">GET</text>
<rect x="248" y="206" width="190" height="64" fill="#15191e" stroke="#4b5563"/>
<text x="266" y="246" font-family="DejaVu Sans, sans-serif" font-size="22" font-weight="400" fill="#edf2f7">index</text>
<rect x="438" y="206" width="160" height="64" fill="#15191e" stroke="#4b5563"/>
<text x="456" y="246" font-family="DejaVu Sans, sans-serif" font-size="22" font-weight="400" fill="#edf2f7">200</text>
<rect x="598" y="206" width="360" height="64" fill="#15191e" stroke="#4b5563"/>
<text x="616" y="246" font-family="DejaVu Sans Mono, monospace" font-size="18" font-weight="400" fill="#edf2f7">/registrations/</text>
<rect x="958" y="206" width="434" height="64" fill="#15191e" stroke="#4b5563"/>
<text x="976" y="246" font-family="DejaVu Sans, sans-serif" font-size="22" font-weight="400" fill="#edf2f7">List registrations</text>
<rect x="48" y="270" width="200" height="64" fill="#1b222a" stroke="#4b5563"/>
<text x="66" y="310" font-family="DejaVu Sans, sans-serif" font-size="22" font-weight="400" fill="#edf2f7">GET</text>
<rect x="248" y="270" width="190" height="64" fill="#1b222a" stroke="#4b5563"/>
<text x="266" y="310" font-family="DejaVu Sans, sans-serif" font-size="22" font-weight="400" fill="#edf2f7">show</text>
<rect x="438" y="270" width="160" height="64" fill="#1b222a" stroke="#4b5563"/>
<text x="456" y="310" font-family="DejaVu Sans, sans-serif" font-size="22" font-weight="400" fill="#edf2f7">200</text>
<rect x="598" y="270" width="360" height="64" fill="#1b222a" stroke="#4b5563"/>
<text x="616" y="310" font-family="DejaVu Sans Mono, monospace" font-size="18" font-weight="400" fill="#edf2f7">/registrations/:id</text>
<rect x="958" y="270" width="434" height="64" fill="#1b222a" stroke="#4b5563"/>
<text x="976" y="310" font-family="DejaVu Sans, sans-serif" font-size="22" font-weight="400" fill="#edf2f7">Get a registration</text>
<rect x="48" y="334" width="200" height="64" fill="#15191e" stroke="#4b5563"/>
<text x="66" y="374" font-family="DejaVu Sans, sans-serif" font-size="22" font-weight="400" fill="#edf2f7">POST</text>
<rect x="248" y="334" width="190" height="64" fill="#15191e" stroke="#4b5563"/>
<text x="266" y="374" font-family="DejaVu Sans, sans-serif" font-size="22" font-weight="400" fill="#edf2f7">create</text>
<rect x="438" y="334" width="160" height="64" fill="#15191e" stroke="#4b5563"/>
<text x="456" y="374" font-family="DejaVu Sans, sans-serif" font-size="22" font-weight="400" fill="#edf2f7">201</text>
<rect x="598" y="334" width="360" height="64" fill="#15191e" stroke="#4b5563"/>
<text x="616" y="374" font-family="DejaVu Sans Mono, monospace" font-size="18" font-weight="400" fill="#edf2f7">/registrations/</text>
<rect x="958" y="334" width="434" height="64" fill="#15191e" stroke="#4b5563"/>
<text x="976" y="374" font-family="DejaVu Sans, sans-serif" font-size="22" font-weight="400" fill="#edf2f7">Create a registration</text>
<rect x="48" y="398" width="200" height="64" fill="#1b222a" stroke="#4b5563"/>
<text x="66" y="438" font-family="DejaVu Sans, sans-serif" font-size="22" font-weight="400" fill="#edf2f7">PUT</text>
<rect x="248" y="398" width="190" height="64" fill="#1b222a" stroke="#4b5563"/>
<text x="266" y="438" font-family="DejaVu Sans, sans-serif" font-size="22" font-weight="400" fill="#edf2f7">update</text>
<rect x="438" y="398" width="160" height="64" fill="#1b222a" stroke="#4b5563"/>
<text x="456" y="438" font-family="DejaVu Sans, sans-serif" font-size="22" font-weight="400" fill="#edf2f7">200</text>
<rect x="598" y="398" width="360" height="64" fill="#1b222a" stroke="#4b5563"/>
<text x="616" y="438" font-family="DejaVu Sans Mono, monospace" font-size="18" font-weight="400" fill="#edf2f7">/registrations/:id</text>
<rect x="958" y="398" width="434" height="64" fill="#1b222a" stroke="#4b5563"/>
<text x="976" y="438" font-family="DejaVu Sans, sans-serif" font-size="22" font-weight="400" fill="#edf2f7">Update a registration</text>
<rect x="48" y="462" width="200" height="64" fill="#15191e" stroke="#4b5563"/>
<text x="66" y="502" font-family="DejaVu Sans, sans-serif" font-size="22" font-weight="400" fill="#edf2f7">DELETE</text>
<rect x="248" y="462" width="190" height="64" fill="#15191e" stroke="#4b5563"/>
<text x="266" y="502" font-family="DejaVu Sans, sans-serif" font-size="22" font-weight="400" fill="#edf2f7">delete</text>
<rect x="438" y="462" width="160" height="64" fill="#15191e" stroke="#4b5563"/>
<text x="456" y="502" font-family="DejaVu Sans, sans-serif" font-size="22" font-weight="400" fill="#edf2f7">204</text>
<rect x="598" y="462" width="360" height="64" fill="#15191e" stroke="#4b5563"/>
<text x="616" y="502" font-family="DejaVu Sans Mono, monospace" font-size="18" font-weight="400" fill="#edf2f7">/registrations/:id</text>
<rect x="958" y="462" width="434" height="64" fill="#15191e" stroke="#4b5563"/>
<text x="976" y="502" font-family="DejaVu Sans, sans-serif" font-size="22" font-weight="400" fill="#edf2f7">Delete a registration</text>
<text x="48" y="570" font-family="DejaVu Sans, sans-serif" font-size="18" font-weight="400" fill="#b7c2cf">Protected actions require JWT authentication and authorization.</text>
</svg>
